<svg id="_x33_0" enable-background="new 0 0 64 64" height="512" viewBox="0 0 64 64" width="512" xmlns="http://www.w3.org/2000/svg"><g><g><g><path d="m58.96 13.22-.8 3.98c-.09.46-.5.8-.98.8h-2.36c-.48 0-.89-.34-.98-.8l-.8-3.98c.87.5 1.88.78 2.96.78s2.09-.28 2.96-.78z" fill="#aab2bd"/></g><g><path d="m56 14c-1.08 0-2.09-.28-2.96-.78-1.81-1.03-3.04-2.99-3.04-5.22 0-3.31 2.69-6 6-6s6 2.69 6 6c0 2.23-1.23 4.19-3.04 5.22-.87.5-1.88.78-2.96.78z" fill="#ffeaa7"/></g><g><circle cx="56" cy="8" fill="#fcd770" r="2"/></g><g><path d="m50 19v2.01l-1.79.59c-.3.09-.52.33-.63.61-.02.06-.05.12-.07.17-.12.28-.13.6 0 .87l.85 1.7-1.41 1.41-1.7-.85c-.27-.13-.59-.12-.87 0-.05.02-.11.05-.17.07-.28.11-.52.33-.61.63l-.59 1.79h-2.02l-.59-1.79c-.09-.3-.33-.52-.61-.63-.06-.02-.12-.05-.17-.07-.28-.12-.6-.13-.87 0l-1.7.85-1.41-1.41.85-1.7c.13-.27.12-.59 0-.87-.02-.05-.05-.11-.07-.17-.11-.28-.33-.52-.63-.61l-1.79-.59v-2.02l1.79-.59c.3-.09.52-.33.63-.61.02-.06.05-.12.07-.17.12-.28.13-.6 0-.87l-.85-1.7 1.41-1.41 1.7.84c.27.14.59.13.87.01.05-.02.11-.05.17-.07.28-.11.52-.33.61-.63l.59-1.79h2.02l.59 1.79c.09.3.33.52.61.63.06.02.12.05.17.07.28.12.6.13.87-.01l1.7-.84 1.41 1.41-.85 1.7c-.13.27-.12.59 0 .87.02.05.05.11.07.17.11.28.33.52.63.61zm-6 1c0-1.1-.9-2-2-2s-2 .9-2 2 .9 2 2 2 2-.9 2-2z" fill="#fcd770"/></g><g><path d="m11.78 9.56-.01.01-1.77 4.43c-.55 0-1.05.22-1.41.59-.37.36-.59.86-.59 1.41 0 .64.25 1.25.71 1.71l1.29 1.29-.7 4.22-4.66-3.96c-1.68-1.43-2.64-3.53-2.64-5.74v-.4c0-1.33.24-2.64.69-3.86.45-1.23 1.13-2.38 1.99-3.38 2.11-2.46 5.18-3.88 8.42-3.88h6.9c.55 0 1 .45 1 1v2c0 1.44-.61 2.73-1.58 3.64-.89.85-2.1 1.36-3.42 1.36h-2.89c-.48 0-.96-.15-1.33-.44z" fill="#656d78"/></g><g><path d="m16 62h-9c1.66 0 3-1.34 3-3v-1l.39-.2c.99-.49 1.61-1.5 1.61-2.6 0-.77-.31-1.51-.85-2.05l-1.15-1.15h6 4v10z" fill="#aab2bd"/></g><g><path d="m16 48h4v4h-4z" fill="#4fc1e9"/></g><g><path d="m4 32.39c0-2.74 1.4-5.24 3.64-6.68l5.36 4.29 2.65-2.31.02-.02c.81.65 1.54 1.41 2.15 2.28 1.42 1.98 2.18 4.36 2.18 6.8v3.25h-4v8 4h-6-6z" fill="#4fc1e9"/></g><g><path d="m19.9 20c-.46 2.28-2.48 4-4.9 4v3.15c-1.42-.99-3.05-1.66-4.78-1.95l-1.22-.2.3-1.78.7-4.22-1.29-1.29c-.46-.46-.71-1.07-.71-1.71 0-.55.22-1.05.59-1.41.36-.37.86-.59 1.41-.59l1.77-4.43.01-.01c.37.29.85.44 1.33.44h2.89c1.32 0 2.53-.51 3.42-1.36.83 1.36 2.58 4.78 2.58 9.36h-2v1c0 .34-.03.68-.1 1z" fill="#f0d0b4"/></g><g><path d="m11.15 53.15c.54.54.85 1.28.85 2.05 0 1.1-.62 2.11-1.61 2.6l-.39.2v1c0 1.66-1.34 3-3 3-.83 0-1.58-.34-2.12-.88s-.88-1.29-.88-2.12v-7h6z" fill="#f0d0b4"/></g><g><path d="m15.65 27.69-2.65 2.31-5.36-4.29c.42-.28.88-.52 1.36-.71l1.22.2c1.73.29 3.36.96 4.78 1.95.23.16.45.33.67.52z" fill="#3bafda"/></g><g><path d="m44 40v8h-24-4v-8h4z" fill="#e6e9ed"/></g><g><path d="m44 48v-8-3c0-2.76 2.24-5 5-5 1.38 0 2.63.56 3.54 1.46.9.91 1.46 2.16 1.46 3.54h1c3.87 0 7 3.13 7 7s-3.13 7-7 7h-1c0 2.76-2.24 5-5 5-1.38 0-2.63-.56-3.54-1.46-.9-.91-1.46-2.16-1.46-3.54zm14-4c0-1.66-1.34-3-3-3s-3 1.34-3 3 1.34 3 3 3 3-1.34 3-3z" fill="#ccd1d9"/></g></g><g><path d="m52.148 13.839.711 3.554c.186.931 1.011 1.607 1.961 1.607h2.36c.95 0 1.775-.676 1.961-1.607l.711-3.554c1.894-1.254 3.148-3.402 3.148-5.839 0-3.859-3.14-7-7-7s-7 3.141-7 7c0 2.437 1.254 4.585 3.148 5.839zm5.032 3.161h-2.36l-.439-2.197c.52.124 1.061.197 1.619.197s1.099-.073 1.62-.197zm-2.18-9c0-.552.449-1 1-1s1 .448 1 1-.449 1-1 1-1-.448-1-1zm1-5c2.757 0 5 2.243 5 5 0 2.414-1.721 4.434-4 4.899v-2.083c1.161-.414 2-1.514 2-2.816 0-1.654-1.346-3-3-3s-3 1.346-3 3c0 1.302.839 2.402 2 2.816v2.083c-2.279-.465-4-2.484-4-4.899 0-2.757 2.243-5 5-5z"/><path d="m42 23c1.654 0 3-1.346 3-3s-1.346-3-3-3-3 1.346-3 3 1.346 3 3 3zm0-4c.551 0 1 .448 1 1s-.449 1-1 1-1-.448-1-1 .449-1 1-1z"/><path d="m35.589 22.809-1.163 2.342 2.423 2.424 2.371-1.147.234.092.59 1.793c.229.686.229.686 2.962.688l.725.001.86-2.494.218-.097 2.343 1.164 2.423-2.424-1.146-2.37.091-.233 2.48-.819v-2.73c0-.726 0-.726-2.48-1.545l-.109-.263 1.163-2.342-2.423-2.424-2.371 1.147-.234-.092-.816-2.48h-3.46l-.86 2.493-.218.097-2.343-1.164-2.423 2.424 1.146 2.37-.091.233-2.481.818v3.459l2.491.853zm-.589-3.091 1.106-.364c.563-.186 1.016-.623 1.244-1.199l.059-.143c.243-.562.232-1.185-.028-1.709l-.523-1.055.391-.391 1.055.523c.526.262 1.147.272 1.709.028l.142-.059c.577-.228 1.015-.681 1.2-1.244l.362-1.105h.565l.364 1.106c.185.563.623 1.017 1.189 1.24l.151.063c.562.244 1.186.233 1.71-.028l1.055-.523.391.391-.523 1.055c-.261.524-.271 1.147-.029 1.708l.059.143c.228.577.681 1.015 1.243 1.199 0 0 .604.2 1.108.367v.563l-1.106.364c-.563.186-1.016.623-1.244 1.199l-.059.143c-.243.562-.232 1.185.028 1.709l.523 1.055-.391.391-1.055-.523c-.526-.261-1.147-.272-1.709-.028l-.142.059c-.577.228-1.015.681-1.2 1.244l-.364 1.105c-.184 0-.382 0-.566-.001l-.364-1.104c-.185-.563-.623-1.017-1.189-1.24l-.151-.063c-.561-.244-1.185-.232-1.71.028l-1.055.523-.391-.391.523-1.055c.261-.524.271-1.147.029-1.708l-.059-.143c-.228-.577-.682-1.015-1.244-1.2l-1.104-.366z"/><path d="m33 7h14v2h-14z"/><path d="m25 7h6v2h-6z"/><path d="m23 19h8v2h-8z"/><path d="m55 40c-2.206 0-4 1.794-4 4s1.794 4 4 4 4-1.794 4-4-1.794-4-4-4zm0 6c-1.103 0-2-.897-2-2s.897-2 2-2 2 .897 2 2-.897 2-2 2z"/><circle cx="48" cy="44" r="1"/><circle cx="48" cy="48" r="1"/><circle cx="48" cy="40" r="1"/><path d="m55 36h-.083c-.478-2.834-2.949-5-5.917-5-3.309 0-6 2.691-6 6v2h-22v-2.248c0-2.664-.819-5.218-2.368-7.387-.749-1.049-1.637-1.961-2.632-2.722v-1.726c2.834-.478 5-2.949 5-5.917h2v-1c0-4.234-1.432-7.539-2.346-9.22.84-1.032 1.346-2.348 1.346-3.78v-2c0-1.103-.897-2-2-2h-6.895c-3.536 0-6.885 1.54-9.187 4.226-1.881 2.194-2.918 4.997-2.918 7.889v.406c0 2.503 1.09 4.873 2.993 6.504l4.224 3.592-.119.714c-3.107 1.484-5.098 4.571-5.098 8.054v26.615c0 2.206 1.794 4 4 4h14v-14h22v2c0 3.309 2.691 6 6 6 2.968 0 5.439-2.166 5.917-5h.083c4.411 0 8-3.589 8-8s-3.589-8-8-8zm-44.949-9.812c1.458.243 2.818.777 4.025 1.552l-1.102.958-3.191-2.554zm8.949-9.188v2h-.764c-.998 0-1.895-.555-2.341-1.447l-1.789.895c.788 1.574 2.37 2.553 4.13 2.553h.208c-.694 1.19-1.97 2-3.444 2h-1v2.394c-1.126-.564-2.342-.965-3.62-1.179l-.229-.038.92-5.521-1.656-1.657c-.268-.268-.415-.622-.415-1 0-.552.449-1 1-1h.677l1.642-4.105c.254.063.517.105.788.105h2.893c1.135 0 2.194-.323 3.1-.873.731 1.434 1.69 3.836 1.87 6.873zm-13.708 1.504c-1.457-1.248-2.292-3.064-2.292-4.983v-.406c0-2.416.865-4.756 2.437-6.589 1.921-2.241 4.716-3.526 7.668-3.526h6.895v2c0 2.206-1.794 4-4 4h-2.893c-.493 0-.937-.278-1.054-.662-.139-.454.029-.778.142-.931.191-.259.484-.407.805-.407h1v-2h-1c-.948 0-1.85.455-2.414 1.218-.573.775-.736 1.762-.446 2.706.099.322.259.616.462.877l-1.313 3.284c-1.312.32-2.289 1.506-2.289 2.915 0 .911.355 1.769 1 2.414l.929.929-.329 1.975zm2.319 8.462 5.416 4.336 2.65-2.303c.484.463.931.972 1.329 1.529 1.304 1.827 1.994 3.98 1.994 6.224v2.248h-2v-2h-2v14h-4v-15.838c0-2.322-1.48-4.376-3.684-5.11l-.633 1.896c1.386.463 2.317 1.754 2.317 3.214v15.838h-4v-18.615c0-2.16.988-4.125 2.611-5.419zm-2.611 32.034v-6h4.586l.856.855c.36.36.558.839.558 1.349 0 .727-.404 1.38-1.053 1.705l-.947.472v1.619c0 1.103-.897 2-2 2s-2-.897-2-2zm12 2v-3.586c0-.645.251-1.251.708-1.707l-1.415-1.414c-.834.834-1.293 1.942-1.293 3.121v3.586h-4.556c.344-.591.556-1.268.556-2v-.386c1.238-.691 2-1.982 2-3.41 0-.799-.242-1.56-.685-2.204h6.685v8zm2-10h-2v-2h2zm-2-4v-6h26v6zm38 3h-2v1c0 2.206-1.794 4-4 4s-4-1.794-4-4v-14c0-2.206 1.794-4 4-4s4 1.794 4 4v1h2c3.309 0 6 2.691 6 6s-2.691 6-6 6z"/></g></g></svg>